<?xml version="1.0" encoding="UTF-8"?>
<svg width="512" height="512" viewBox="0 0 512 512" xmlns="http://www.w3.org/2000/svg">
  <rect fill="#fff" width="512" height="512" rx="96" />
  <g fill="#090b2c">
    <path
      d="M251.583 150.757c-43.994 1.836-82.72 31.11-96.086 73.71-14.257 45.438 3.83 94.918 44.03 120.448a10.667 10.667 0 0 0 14.724-3.285 10.667 10.667 0 0 0-3.285-14.721 83.91 83.91 0 0 1-35.114-96.058 83.906 83.906 0 0 1 83.694-58.775 10.667 10.667 0 0 0 11.107-10.21 10.667 10.667 0 0 0-10.206-11.106 105 105 0 0 0-8.865-.003m52.845 14.92a10.67 10.67 0 0 0-6.681 4.693 10.667 10.667 0 0 0 3.285 14.72 83.91 83.91 0 0 1 35.115 96.057 83.906 83.906 0 0 1-83.695 58.776 10.667 10.667 0 0 0-11.106 10.21 10.667 10.667 0 0 0 10.205 11.106c47.58 2.01 90.693-28.266 104.95-73.706s-3.83-94.919-44.03-120.45a10.67 10.67 0 0 0-8.043-1.406m95.839-62.69a44.8 44.8 0 0 0-17.858 1.851c-23.768 7.458-37.142 33.058-29.685 56.826s33.057 37.14 56.827 29.682c23.766-7.457 37.14-33.057 29.684-56.826-5.594-17.826-21.392-29.804-38.97-31.534m-1.949 21.178c9.319.864 17.556 7.169 20.56 16.745 4.007 12.767-2.947 26.077-15.713 30.083-12.768 4.006-26.078-2.947-30.083-15.714-4.007-12.768 2.947-26.08 15.713-30.085a24.3 24.3 0 0 1 9.523-1.03M120.306 318.803a44.8 44.8 0 0 0-17.856 1.85c-23.768 7.458-37.142 33.058-29.685 56.827 7.457 23.767 33.057 37.139 56.827 29.681 23.766-7.457 37.14-33.057 29.684-56.826-5.594-17.825-21.392-29.804-38.97-31.533m-1.946 21.175c9.317.864 17.554 7.167 20.56 16.743 4.005 12.768-2.947 26.08-15.715 30.085-12.767 4.007-26.077-2.948-30.083-15.716-4.006-12.766 2.947-26.077 15.714-30.082a24.3 24.3 0 0 1 9.524-1.03" />
    <path
      d="m359.707 148.293-56.148 17.619a10.667 10.667 0 0 0-6.984 13.369 10.667 10.667 0 0 0 13.37 6.984l56.15-17.617a10.667 10.667 0 0 0 6.985-13.372 10.667 10.667 0 0 0-13.373-6.982M202.054 325.733l-56.15 17.618a10.667 10.667 0 0 0-6.986 13.372 10.667 10.667 0 0 0 13.374 6.981l56.147-17.617a10.667 10.667 0 0 0 6.984-13.37 10.667 10.667 0 0 0-13.369-6.983M164.63 241.22a10.667 10.667 0 0 0-13.37 6.984 10.667 10.667 0 0 0 6.985 13.373l174.804 54.845a10.667 10.667 0 0 0 13.369-6.984 10.667 10.667 0 0 0-6.984-13.373z" />
    <path
      d="M374.463 239.833a36.7 36.7 0 0 0-13.32 2.374c-8.832 3.32-17.165 11.255-20.024 22.607-3.177 12.621-7.99 24.801-14.253 36.344a10.667 10.667 0 0 0 5.019 14.823c3.133 1.4 3.12.93 3.958 1.037s1.672.173 2.627.23a91 91 0 0 0 7.026.098c5.526-.119 12.63-.656 20.208-2.139 15.16-2.964 33.935-9.706 41-27.997 6.822-17.657-1.864-37.92-19.557-44.899a35.6 35.6 0 0 0-12.684-2.478m-.193 21.469c1.916.025 3.736.339 5.05.856 6.967 2.748 10.215 10.293 7.484 17.365-2.776 7.186-13.122 12.39-25.193 14.75-2.879.562-5.741.942-8.453 1.218 3.498-8.257 6.452-16.742 8.648-25.468 1.214-4.825 3.464-6.573 6.846-7.846 1.694-.636 3.702-.9 5.618-.875m-228.573-91.596c-16.044.243-30.37 11.818-33.599 28.062-3.822 19.231 8.428 34.978 19.647 45.595 5.608 5.31 11.32 9.566 15.924 12.623a89 89 0 0 0 5.987 3.677c.837.464 1.578.854 2.344 1.214s.5.752 3.896 1.245a10.667 10.667 0 0 0 12.177-9.836c.888-13.103 3.343-25.967 7.413-38.328 3.663-11.12.87-22.28-4.813-29.813-5.68-7.532-13.59-12.219-22.02-13.833a34.3 34.3 0 0 0-6.956-.607m2.943 21.56c2.773.53 6.826 2.84 9.002 5.725 2.178 2.887 3.138 5.567 1.582 10.292-2.815 8.547-4.863 17.293-6.328 26.14-2.143-1.684-4.358-3.536-6.487-5.552-8.933-8.455-14.888-18.39-13.387-25.945 1.48-7.435 8.262-12.07 15.618-10.661" />
  </g>
</svg>